<svg width="175" height="38" viewBox="0 0 175 38" fill="none" xmlns="http://www.w3.org/2000/svg">
<g clip-path="url(#clip0_102_795)">
<path d="M37.8388 11.9929C37.1602 16.4986 34.6812 21.6557 33.0345 26.9847C31.3426 32.4313 30.4559 37.9957 28.0584 37.9957C23.7336 37.9957 23.3717 25.2476 20.7389 22.9676C20.5127 22.755 20.2159 22.631 19.9056 22.6183C14.6399 22.6183 16.1147 38.0173 10.858 37.9992C8.35181 37.9902 7.6642 33.0683 5.29371 26.9883C2.65182 20.2027 -1.46483 11.9694 0.525662 7.45461C4.1628 -0.805787 9.93515 1.0218 16.0513 2.65034C16.1328 2.66844 16.2051 2.69561 16.2866 2.71364C19.6433 3.60936 23.1175 4.53217 26.5466 3.84456C27.0306 3.75134 27.3482 3.28363 27.255 2.79862C27.2541 2.79409 27.2532 2.78957 27.2522 2.78593C27.1572 2.29558 26.6822 1.97437 26.1918 2.06937C26.1891 2.07026 26.1873 2.07026 26.1845 2.07115C24.318 2.38056 22.409 2.31903 20.566 1.89021C29.7412 -2.94464 39.3679 1.88672 37.8388 11.9929Z" fill="white"/>
</g>
<path d="M56.344 12.894H50.624V11.126H64.586V12.894H58.892V28H56.344V12.894ZM72.567 28.26C71.4577 28.26 70.6257 28.2167 70.071 28.13C69.5163 28.0607 68.9617 27.896 68.407 27.636C67.835 27.376 67.419 26.96 67.159 26.388C66.899 25.7987 66.769 25.01 66.769 24.022V19.654C66.769 18.874 66.8643 18.1893 67.055 17.6C67.2457 17.0107 67.497 16.5513 67.809 16.222C68.069 15.9273 68.459 15.702 68.979 15.546C69.5163 15.3727 70.0623 15.26 70.617 15.208C71.241 15.1733 71.891 15.156 72.567 15.156C73.4683 15.156 74.1443 15.182 74.595 15.234C75.063 15.2687 75.557 15.3553 76.077 15.494C76.6143 15.65 77.0303 15.884 77.325 16.196C77.6197 16.508 77.871 16.9587 78.079 17.548C78.2697 18.1547 78.365 18.8567 78.365 19.654V24.022C78.365 25.4953 78.027 26.57 77.351 27.246C77.0737 27.5233 76.675 27.74 76.155 27.896C75.635 28.052 75.0977 28.156 74.543 28.208C73.8843 28.2427 73.2257 28.26 72.567 28.26ZM72.567 26.726C73.295 26.726 73.8237 26.7087 74.153 26.674C74.4823 26.6393 74.803 26.544 75.115 26.388C75.427 26.2493 75.6437 26.024 75.765 25.712C75.9037 25.3827 75.973 24.932 75.973 24.36V19.264C75.973 18.484 75.8777 17.9207 75.687 17.574C75.4963 17.21 75.167 16.976 74.699 16.872C74.2483 16.7507 73.5377 16.69 72.567 16.69C71.5963 16.69 70.877 16.7507 70.409 16.872C69.9583 16.976 69.6377 17.21 69.447 17.574C69.2563 17.9207 69.161 18.484 69.161 19.264V24.36C69.161 24.932 69.2217 25.3827 69.343 25.712C69.4817 26.024 69.707 26.2493 70.019 26.388C70.331 26.544 70.6517 26.6393 70.981 26.674C71.3103 26.7087 71.839 26.726 72.567 26.726ZM87.3443 28.26C86.235 28.26 85.403 28.2167 84.8483 28.13C84.2937 28.0607 83.739 27.896 83.1843 27.636C82.6123 27.376 82.1963 26.96 81.9363 26.388C81.6763 25.7987 81.5463 25.01 81.5463 24.022V19.654C81.5463 18.874 81.6417 18.1893 81.8323 17.6C82.023 17.0107 82.2743 16.5513 82.5863 16.222C82.8463 15.9273 83.2363 15.702 83.7563 15.546C84.2937 15.3727 84.8397 15.26 85.3943 15.208C86.0183 15.1733 86.6683 15.156 87.3443 15.156C88.2457 15.156 88.9217 15.182 89.3723 15.234C89.8403 15.2687 90.3343 15.3553 90.8543 15.494C91.3917 15.65 91.8077 15.884 92.1023 16.196C92.397 16.508 92.6483 16.9587 92.8563 17.548C93.047 18.1547 93.1423 18.8567 93.1423 19.654V24.022C93.1423 25.4953 92.8043 26.57 92.1283 27.246C91.851 27.5233 91.4523 27.74 90.9323 27.896C90.4123 28.052 89.875 28.156 89.3203 28.208C88.6617 28.2427 88.003 28.26 87.3443 28.26ZM87.3443 26.726C88.0723 26.726 88.601 26.7087 88.9303 26.674C89.2597 26.6393 89.5803 26.544 89.8923 26.388C90.2043 26.2493 90.421 26.024 90.5423 25.712C90.681 25.3827 90.7503 24.932 90.7503 24.36V19.264C90.7503 18.484 90.655 17.9207 90.4643 17.574C90.2737 17.21 89.9443 16.976 89.4763 16.872C89.0257 16.7507 88.315 16.69 87.3443 16.69C86.3737 16.69 85.6543 16.7507 85.1863 16.872C84.7357 16.976 84.415 17.21 84.2243 17.574C84.0337 17.9207 83.9383 18.484 83.9383 19.264V24.36C83.9383 24.932 83.999 25.3827 84.1203 25.712C84.259 26.024 84.4843 26.2493 84.7963 26.388C85.1083 26.544 85.429 26.6393 85.7583 26.674C86.0877 26.7087 86.6163 26.726 87.3443 26.726ZM102.07 28.26C100.995 28.26 100.154 28.1473 99.5477 27.922C98.941 27.6793 98.499 27.2807 98.2217 26.726C97.9617 26.154 97.8317 25.3567 97.8317 24.334V16.95H95.0237V15.416H97.8317V11.516H100.198V15.416H104.696V16.95H100.198V24.464C100.198 25.088 100.267 25.556 100.406 25.868C100.562 26.18 100.822 26.4053 101.186 26.544C101.567 26.6653 102.113 26.726 102.824 26.726C103.049 26.726 103.673 26.6567 104.696 26.518V28.052C103.812 28.1907 102.936 28.26 102.07 28.26ZM107.253 9.8H109.593V16.95C109.835 15.754 111.213 15.156 113.727 15.156C115.339 15.156 116.465 15.4507 117.107 16.04C117.765 16.612 118.095 17.522 118.095 18.77V28H115.755V18.926C115.755 18.5967 115.729 18.328 115.677 18.12C115.625 17.912 115.521 17.704 115.365 17.496C115.018 17.0627 114.247 16.846 113.051 16.846C112.097 16.846 111.369 16.9153 110.867 17.054C110.381 17.1753 110.043 17.3833 109.853 17.678C109.679 17.9727 109.593 18.3887 109.593 18.926V28H107.253V9.8ZM126.005 28.26C124.67 28.26 123.232 28.156 121.689 27.948V26.154C123.717 26.4833 125.173 26.648 126.057 26.648C127.166 26.648 127.964 26.544 128.449 26.336C128.934 26.1107 129.177 25.7033 129.177 25.114V23.84C129.177 23.3027 128.995 22.9213 128.631 22.696C128.267 22.4707 127.678 22.358 126.863 22.358H125.433C124.133 22.358 123.136 22.0893 122.443 21.552C121.767 21.0147 121.429 20.2607 121.429 19.29V18.12C121.429 16.144 123.301 15.156 127.045 15.156C127.322 15.156 128.596 15.2253 130.867 15.364V17.054C129.324 16.8113 128.016 16.69 126.941 16.69C125.71 16.69 124.87 16.8113 124.419 17.054C123.968 17.2967 123.743 17.704 123.743 18.276V19.342C123.743 20.1913 124.514 20.616 126.057 20.616H127.513C130.165 20.616 131.491 21.604 131.491 23.58V24.672C131.491 25.972 131.04 26.8993 130.139 27.454C129.238 27.9913 127.86 28.26 126.005 28.26ZM140.029 28.26C136.181 28.26 134.257 26.9773 134.257 24.412V19.446C134.257 17.9207 134.691 16.8287 135.557 16.17C136.441 15.494 137.863 15.156 139.821 15.156C141.676 15.156 143.011 15.4767 143.825 16.118C144.657 16.7593 145.073 17.8687 145.073 19.446V22.228H136.623V24.126C136.623 24.9927 136.927 25.6167 137.533 25.998C138.14 26.3793 139.076 26.57 140.341 26.57C141.537 26.57 142.95 26.362 144.579 25.946V27.74C142.985 28.0867 141.468 28.26 140.029 28.26ZM142.733 20.694V18.718C142.733 17.9553 142.499 17.4353 142.031 17.158C141.581 16.8633 140.801 16.716 139.691 16.716C138.617 16.716 137.837 16.8633 137.351 17.158C136.866 17.4353 136.623 17.9553 136.623 18.718V20.694H142.733ZM148.639 15.416H150.979V16.95C151.222 15.754 152.6 15.156 155.113 15.156C156.725 15.156 157.852 15.4507 158.493 16.04C159.152 16.612 159.481 17.522 159.481 18.77V28H157.141V18.9C157.141 18.5707 157.115 18.302 157.063 18.094C157.011 17.886 156.907 17.678 156.751 17.47C156.405 17.0367 155.633 16.82 154.437 16.82C153.519 16.82 152.808 16.8893 152.305 17.028C151.82 17.1493 151.473 17.3573 151.265 17.652C151.075 17.9467 150.979 18.3627 150.979 18.9V28H148.639V15.416ZM167.392 28.26C166.057 28.26 164.618 28.156 163.076 27.948V26.154C165.104 26.4833 166.56 26.648 167.444 26.648C168.553 26.648 169.35 26.544 169.836 26.336C170.321 26.1107 170.564 25.7033 170.564 25.114V23.84C170.564 23.3027 170.382 22.9213 170.018 22.696C169.654 22.4707 169.064 22.358 168.25 22.358H166.82C165.52 22.358 164.523 22.0893 163.83 21.552C163.154 21.0147 162.816 20.2607 162.816 19.29V18.12C162.816 16.144 164.688 15.156 168.432 15.156C168.709 15.156 169.983 15.2253 172.254 15.364V17.054C170.711 16.8113 169.402 16.69 168.328 16.69C167.097 16.69 166.256 16.8113 165.806 17.054C165.355 17.2967 165.13 17.704 165.13 18.276V19.342C165.13 20.1913 165.901 20.616 167.444 20.616H168.9C171.552 20.616 172.878 21.604 172.878 23.58V24.672C172.878 25.972 172.427 26.8993 171.526 27.454C170.624 27.9913 169.246 28.26 167.392 28.26Z" fill="white"/>
<defs>
<clipPath id="clip0_102_795">
<rect width="38" height="38" fill="white"/>
</clipPath>
</defs>
</svg>
